<svg width="804" height="798" viewBox="0 0 804 798" fill="none" xmlns="http://www.w3.org/2000/svg">
<path d="M238 364.5V182H317.5V364.5H377V433.5H317.5L318 621.5H238V433H3.5L2.5 411.5V393.5L4 372.5L7.5 344.5L10 326L14.5 305.5L21.5 282L29.5 256.5L38 236.5L46.5 219L55 203L66 185L80 164L98 141.5L113.5 124L129 108.5L148.5 90.5L165.5 78L184.5 65L204 53.5L225.5 42L249 31.5L277 21L298.5 14.5L321 9L341.5 6L366.5 3.5L381.5 2.5H397.5H412.5L427.5 3.5L455 7L475.5 10.5L492 13.5L522.5 23L545 31.5L572.5 43.5L601 60L621 73L641 88.5L661 105L674 118L686 130L635.5 180L629 174L619 164L605.5 153L595.5 144.5L583 136L571 128.5L558.5 120.5L548 115L537 109.5L525.5 105L510 98.5L494.5 93.5L476 88L463 85.5L445.5 82.5L435 81L424 79.5L408 79H389L371.5 79.5L357 80.5L336 84L319 87.5L302 92L286.5 97.5L266.5 105L251.5 111.5L237 119L219.5 129.5L207.5 137.5L191 149.5L178 160.5L168 169.5L154.5 183L143.5 195.5L135.5 205.5L126 218L120.5 226.5L115.5 234.5L110.5 243L107 250L103.5 256.5L99 265.5L94.5 274.5L91 283.5L88.5 291L85 300L83 307.5L80.5 316.5L79 322.5L77.5 328L76 333L75 339L74 345.5L73 352L72 360V364.5H238Z" fill="#940094" stroke="white" stroke-width="5"/>
<path d="M487 363H426.5V433H487V615.5H566.5V433L732 432.5L731.5 441.5L730 453L725 475L715 508L703.5 535L691.5 557.5L678 579L658 605L636.5 627.5L614 646.5L592 663L572.5 675L551 686L524 698L497.5 706L473 712L446 716.5L427.5 718H395L374 716.5L344 712L315 705L287 695.5L263 685.5L240.5 673.5L221 660.5L205 649L188.5 635L173 620L120.5 669L130.5 679L146 694.5L163.5 709L182.5 723.5L203.5 737.5L230.5 752.5L251.5 762.5L272.5 771L297.5 779.5L325.5 786.5L348.5 791L371.5 793.5L391.5 795L422 794.5L435.5 793.5L454 792L478.5 788L506 782.5L535 773.5L558.5 764.5L588 750.5L613.5 736.5L639.5 719L662 701L683 681.5L702.5 661L718.5 641L733 621L747.5 598L761 573L771 551.5L780 527L786.5 505L790.5 490L796 463.5L798.5 445L801 417.5L800.5 379.5V362.5L566 363V175.5H487V363Z" fill="#940094" stroke="white" stroke-width="5"/>
</svg>
