<svg width="800" height="794" viewBox="0 0 800 794" fill="none" xmlns="http://www.w3.org/2000/svg">
<path d="M236 362.5V180H315.5V362.5H375V431.5H315.5L316 619.5H236V431H1.5L0.5 409.5V391.5L2 370.5L5.5 342.5L8 324L12.5 303.5L19.5 280L27.5 254.5L36 234.5L44.5 217L53 201L64 183L78 162L96 139.5L111.5 122L127 106.5L146.5 88.5L163.5 76L182.5 63L202 51.5L223.5 40L247 29.5L275 19L296.5 12.5L319 7L339.5 4L364.5 1.5L379.5 0.5H395.5H410.5L425.5 1.5L453 5L473.5 8.5L490 11.5L520.5 21L543 29.5L570.5 41.5L599 58L619 71L639 86.5L659 103L672 116L684 128L633.5 178L627 172L617 162L603.5 151L593.5 142.5L581 134L569 126.5L556.5 118.5L546 113L535 107.5L523.5 103L508 96.5L492.5 91.5L474 86L461 83.5L443.5 80.5L433 79L422 77.5L406 77H387L369.5 77.5L355 78.5L334 82L317 85.5L300 90L284.5 95.5L264.5 103L249.5 109.5L235 117L217.5 127.5L205.5 135.5L189 147.5L176 158.5L166 167.5L152.5 181L141.5 193.5L133.5 203.5L124 216L118.5 224.5L113.5 232.5L108.5 241L105 248L101.5 254.5L97 263.5L92.5 272.5L89 281.5L86.5 289L83 298L81 305.5L78.5 314.5L77 320.5L75.5 326L74 331L73 337L72 343.5L71 350L70 358V362.5H236Z" fill="white" stroke="#940094"/>
<path d="M485 361H424.5V431H485V613.5H564.5V431L730 430.5L729.5 439.5L728 451L723 473L713 506L701.5 533L689.5 555.5L676 577L656 603L634.5 625.5L612 644.5L590 661L570.5 673L549 684L522 696L495.5 704L471 710L444 714.5L425.5 716H393L372 714.5L342 710L313 703L285 693.5L261 683.5L238.5 671.5L219 658.5L203 647L186.5 633L171 618L118.5 667L128.5 677L144 692.5L161.5 707L180.5 721.5L201.5 735.5L228.5 750.5L249.5 760.5L270.5 769L295.5 777.5L323.5 784.5L346.5 789L369.5 791.5L389.5 793L420 792.5L433.5 791.5L452 790L476.5 786L504 780.5L533 771.5L556.5 762.5L586 748.5L611.5 734.5L637.5 717L660 699L681 679.5L700.5 659L716.5 639L731 619L745.5 596L759 571L769 549.5L778 525L784.5 503L788.5 488L794 461.5L796.5 443L799 415.5L798.5 377.5V360.5L564 361V173.5H485V361Z" fill="white" stroke="#940094"/>
</svg>
